<svg id="visual" viewBox="0 0 900 600" width="900" height="600" xmlns="http://www.w3.org/2000/svg" xmlns:xlink="http://www.w3.org/1999/xlink" version="1.1"><rect x="0" y="0" width="900" height="600" fill="#080404"></rect><path d="M0 201L12.5 251.7C25 302.3 50 403.7 75 397.8C100 392 125 279 150 271.8C175 264.7 200 363.3 225 352.7C250 342 275 222 300 227.5C325 233 350 364 375 397.3C400 430.7 425 366.3 450 358.3C475 350.3 500 398.7 525 420.3C550 442 575 437 600 432C625 427 650 422 675 388.5C700 355 725 293 750 292.2C775 291.3 800 351.7 825 351.7C850 351.7 875 291.3 887.5 261.2L900 231L900 0L887.5 0C875 0 850 0 825 0C800 0 775 0 750 0C725 0 700 0 675 0C650 0 625 0 600 0C575 0 550 0 525 0C500 0 475 0 450 0C425 0 400 0 375 0C350 0 325 0 300 0C275 0 250 0 225 0C200 0 175 0 150 0C125 0 100 0 75 0C50 0 25 0 12.5 0L0 0Z" fill="#F7CACA" stroke-linecap="round" stroke-linejoin="miter"></path></svg>