<svg id="visual" viewBox="0 0 900 600" width="900" height="600" xmlns="http://www.w3.org/2000/svg" xmlns:xlink="http://www.w3.org/1999/xlink" version="1.1"><rect x="0" y="0" width="900" height="600" fill="#002233"></rect><path d="M0 265L15 245.3C30 225.7 60 186.3 90 163.5C120 140.7 150 134.3 180 136.5C210 138.7 240 149.3 270 167.5C300 185.7 330 211.3 360 209.7C390 208 420 179 450 160.7C480 142.3 510 134.7 540 154.3C570 174 600 221 630 217C660 213 690 158 720 153C750 148 780 193 810 213.2C840 233.3 870 228.7 885 226.3L900 224L900 0L885 0C870 0 840 0 810 0C780 0 750 0 720 0C690 0 660 0 630 0C600 0 570 0 540 0C510 0 480 0 450 0C420 0 390 0 360 0C330 0 300 0 270 0C240 0 210 0 180 0C150 0 120 0 90 0C60 0 30 0 15 0L0 0Z" fill="#0066FF" stroke-linecap="round" stroke-linejoin="miter"></path></svg>